<svg width="21" height="20" viewBox="0 0 21 20" fill="none" xmlns="http://www.w3.org/2000/svg">
<g id="Location Icon">
<g id="Vector">
<path d="M17.0404 8.33329C17.0404 13.3333 10.3737 18.3333 10.3737 18.3333C10.3737 18.3333 3.70703 13.3333 3.70703 8.33329C3.70703 6.56518 4.40941 4.86949 5.65965 3.61925C6.9099 2.36901 8.60559 1.66663 10.3737 1.66663C12.1418 1.66663 13.8375 2.36901 15.0877 3.61925C16.338 4.86949 17.0404 6.56518 17.0404 8.33329Z" stroke="#EF4444" stroke-width="1.5" stroke-linecap="round" stroke-linejoin="round"/>
<path d="M10.3737 10.8333C11.7544 10.8333 12.8737 9.714 12.8737 8.33329C12.8737 6.95258 11.7544 5.83329 10.3737 5.83329C8.99299 5.83329 7.8737 6.95258 7.8737 8.33329C7.8737 9.714 8.99299 10.8333 10.3737 10.8333Z" stroke="#EF4444" stroke-width="1.5" stroke-linecap="round" stroke-linejoin="round"/>
</g>
</g>
</svg>
